<svg viewBox="0 0 640 400" data-background-color="#0c1d36" preserveAspectRatio="xMidYMid meet" height="400" width="640" xmlns="http://www.w3.org/2000/svg" xmlns:xlink="http://www.w3.org/1999/xlink"><g id="tight-bounds" transform="matrix(1,0,0,1,122.24000000000001,147.72541413578983)"><svg viewBox="0 0 395.52 104.54917172842033" height="104.54917172842033" width="395.52"><g><svg viewBox="0 0 395.52 104.54917172842033" height="104.54917172842033" width="395.52"><g><svg viewBox="0 0 395.52 104.54917172842033" height="104.54917172842033" width="395.52"><g><svg viewBox="0 0 395.52 104.54917172842033" height="104.54917172842033" width="395.52"><g><svg viewBox="0 0 395.52 104.54917172842033" height="104.54917172842033" width="395.52"><path d="M394.594 22.424C392.735 11.572 387.435 8.555 387.435 8.555 371.165-2.623 350.86-0.214 332.619 1.392 300.414 1.457 268.339 3.845 236.208 5.125 168.767 5.321 100.749 2.109 33.643 10.031 27.339 12.462-6.54 10.508 1.121 23.813 3.129 29.347 10.456 35.49 10.232 40.569 11.236 41.458 12.631 39.418 13.226 40.699 15.309 44.15 18.711 42.522 21.501 44.562 17.614 50.01 20.403 54.546 23.062 59.299 18.377 60.537 12.371 59.951 9.675 64.053 9.396 67.026 7.89 66.462 6.235 66.332 5.026 66.245 2.59 66.57 2.999 67.504 4.394 70.694-1.594 72.539 2.162 75.665-0.422 79.05 3.948 81.98 3.353 85.649 3.278 86.386 3.687 87.016 4.338 87.19 7.22 88.123 3.018 89.946 3.464 91.921 33.029 105.421 65.104 96.088 95.394 102.296 103.259 97.955 97.346 103.837 100.489 102.925 102.943 101.862 104.728 106.268 107.499 103.772 107.927 103.055 107.276 101.362 108.8 101.688 109.6 101.862 110.307 101.818 110.418 100.82 110.586 99.322 109.117 100.256 108.726 99.474 112.947 95.524 111.906 104.922 115.866 104.531 115.68 103.381 114.528 101.731 116.889 101.948 119.232 100.299 119.306 98.932 121.389 102.643 121.463 103.446 121.835 104.01 122.43 104.401 128.938 100.364 135.409 105.834 142.233 104.01 146.417 102.014 150.433 105.096 154.672 104.336 156.16 103.728 157.666 102.643 159.098 104.466 176.632 104.857 195.319 103.229 211.943 104.531 256.364 102.1 303.835 105.53 350.674 102.317 361.719 101.08 373.192 99.322 383.958 97.911 383.958 97.911 392.679 94.048 392.679 76.685S394.538 61.492 394.817 47.666C395.096 33.84 396.398 33.276 394.538 22.424Z" opacity="1" fill="#f9cc0b" data-fill-palette-color="tertiary"></path><g transform="matrix(1,0,0,1,55.76832,26.230666666666668)"><svg width="283.98335999999995" viewBox="2.5 -33.70000076293945 244.22999572753906 44.80000305175781" height="52.087838395087" data-palette-color="#0c1d36"><path d="M28-27.75Q28.75-26.85 29.05-26.3 29.35-25.75 29.35-25.25L29.35-25.25Q29.35-24.65 28.58-23.85 27.8-23.05 27.05-23.05L27.05-23.05Q26.05-23.05 25.45-23.35 24.85-23.65 24.45-24.3L24.45-24.3Q23.65-25.5 22.5-26.38 21.35-27.25 18.9-27.25L18.9-27.25Q16.8-27.25 14.13-26.3 11.45-25.35 10.3-23.95L10.3-23.95Q9.3-22.7 8.58-20.15 7.85-17.6 7.85-15.2L7.85-15.2Q7.85-12.3 9.13-9.88 10.4-7.45 12.83-6 15.25-4.55 18.65-4.55L18.65-4.55Q20.5-4.55 22.48-5.28 24.45-6 25.9-7.65L25.9-7.65 25.85-7.65Q26.75-8.6 28.1-8.6L28.1-8.6Q28.9-8.6 29.63-7.9 30.35-7.2 30.35-6.5L30.35-6.5Q30.35-5.75 30.13-5.18 29.9-4.6 29.3-3.9L29.3-3.9Q27.25-1.6 24.45-0.75 21.65 0.1 17.75 0.1L17.75 0.1Q14.3 0.1 10.78-1.55 7.25-3.2 5.35-5.55L5.35-5.55Q4.35-7 3.43-9.73 2.5-12.45 2.5-14.15L2.5-14.15Q2.5-18.5 3.83-22.43 5.15-26.35 7.8-28.7L7.8-28.7Q9.55-30.3 12.85-31.1 16.15-31.9 18.9-31.9L18.9-31.9Q22.25-31.9 24.18-30.98 26.1-30.05 28-27.75L28-27.75ZM42.2-2Q42.2-1.15 41.55-0.5 40.9 0.15 39.95 0.15L39.95 0.15Q38.45 0.15 37.75-0.43 37.05-1 37.05-2.55L37.05-2.55Q37.05-4.4 36.95-7.4L36.95-7.4Q36.85-9.9 36.85-11.6L36.85-11.6Q36.85-12.4 36.95-13.7L36.95-13.7Q37.05-14.9 37.05-15.5L37.05-15.5Q36.9-16.45 36.3-17.07 35.7-17.7 34.75-17.7L34.75-17.7Q34.3-17.7 34-18.13 33.7-18.55 33.7-19L33.7-19Q33.7-20.15 34.62-20.75 35.55-21.35 36.85-21.35L36.85-21.35Q39.55-21.35 40.6-18.15L40.6-18.15Q41.9-19.65 43.57-20.58 45.25-21.5 46.8-21.5L46.8-21.5Q48.65-21.5 50.17-20.5 51.7-19.5 51.7-17.8L51.7-17.8Q51.7-16.85 50.87-15.85 50.05-14.85 49.2-14.85L49.2-14.85Q48.75-14.85 48.42-15.08 48.1-15.3 47.65-15.75L47.65-15.75Q47.15-16.25 46.8-16.48 46.45-16.7 46-16.7L46-16.7Q45.2-16.7 44.5-16.45 43.8-16.2 43.55-15.85L43.55-15.85Q42.75-14.6 42.37-13.6 42-12.6 42-11.45L42-11.45Q42-10.6 41.95-10.1L41.95-10.1 41.9-7.25Q41.9-6.6 41.95-5.8 42-5 42.05-4.6L42.05-4.6Q42.2-3.25 42.2-2L42.2-2ZM60.1 10.2Q58.2 10.2 56.92 9.58 55.65 8.95 55.02 8.08 54.4 7.2 54.4 6.55L54.4 6.55Q54.4 5.7 55 5.23 55.6 4.75 56.45 4.75L56.45 4.75Q56.95 4.75 57.4 5.05 57.85 5.35 57.9 5.4L57.9 5.4Q58.25 5.65 58.6 5.83 58.95 6 59.35 6L59.35 6Q60.45 6 61.15 4.55 61.85 3.1 62.55-0.15L62.55-0.15Q60.3-3.45 58.8-6.75L58.8-6.75 57.65-9.4Q57.4-10 56.27-12.53 55.15-15.05 54.05-17L54.05-17Q53.35-18.4 53.35-18.9L53.35-18.9Q53.35-20.15 54.22-20.75 55.1-21.35 56.25-21.35L56.25-21.35Q57.05-21.35 57.47-21.03 57.9-20.7 58.45-19.85L58.45-19.85Q59.9-17.45 61.6-12.65L61.6-12.65Q62.6-9.9 63.2-8.47 63.8-7.05 64.65-5.6L64.65-5.6Q65.5-7.55 66.8-12.25L66.8-12.25Q67.59-14.95 68.12-16.57 68.65-18.2 69.3-19.55L69.3-19.55Q69.75-20.45 70.42-21 71.09-21.55 71.95-21.55L71.95-21.55Q72.8-21.55 73.77-20.93 74.75-20.3 74.75-19.45L74.75-19.45Q74.75-18.95 74.4-18.25L74.4-18.25Q72.45-13.75 70.97-9.78 69.5-5.8 68.15-1.05L68.15-1.05Q67.34 1.6 66.47 4 65.59 6.4 65.25 6.95L65.25 6.95Q64.25 8.35 63 9.28 61.75 10.2 60.1 10.2L60.1 10.2ZM79.24-17.4Q78.79-17.4 78.39-17.32 77.99-17.25 77.59-17.25L77.59-17.25Q77.04-17.25 76.57-17.75 76.09-18.25 76.09-18.65L76.09-18.65Q76.09-19.95 77.39-20.68 78.69-21.4 80.04-21.4L80.04-21.4Q81.19-21.4 82.42-20.63 83.64-19.85 84.24-18.65L84.24-18.65Q85.54-20.2 87.44-20.9 89.34-21.6 91.39-21.6L91.39-21.6Q93.69-21.6 95.67-20.15 97.64-18.7 98.79-16.48 99.94-14.25 99.94-12.05L99.94-12.05Q99.94-9.9 99.49-8.22 99.04-6.55 97.89-4.85L97.89-4.85Q96.59-3.05 94.42-1.9 92.24-0.75 89.24-0.75L89.24-0.75Q88.44-0.75 87.29-1.18 86.14-1.6 85.39-2.1L85.39-2.1Q85.04 1.3 85.04 3.8L85.04 3.8Q85.04 5.3 85.19 6.65L85.19 6.65Q85.29 8.25 85.29 8.95L85.29 8.95Q85.29 10.05 84.54 10.58 83.79 11.1 82.89 11.1L82.89 11.1Q81.09 11.1 80.52 10.13 79.94 9.15 79.94 7.35L79.94 7.35Q80.14 3.05 80.44-0.6L80.44-0.6Q80.74-5.1 80.74-14.5L80.74-14.5Q80.74-15.4 80.39-16.4 80.04-17.4 79.24-17.4L79.24-17.4ZM85.59-7.05Q85.84-6.1 87.02-5.48 88.19-4.85 89.14-4.85L89.14-4.85Q91.99-4.85 93.39-6.4L93.39-6.4Q94.44-7.5 94.77-8.55 95.09-9.6 95.09-11.9L95.09-11.9Q95.09-13.7 94.39-14.93 93.69-16.15 92.69-16.73 91.69-17.3 90.79-17.3L90.79-17.3Q88.74-17.3 87.47-16.07 86.19-14.85 85.84-12.75L85.84-12.75Q85.59-11.1 85.59-7.05L85.59-7.05ZM106.94-17.1L104.54-17.3Q103.84-17.4 103.42-17.9 102.99-18.4 102.99-19.1L102.99-19.1Q102.99-19.45 103.17-19.85 103.34-20.25 103.69-20.55L103.69-20.55Q104.34-21.2 107.19-21.2L107.19-21.2Q107.59-23.15 107.59-25.15L107.59-25.15Q107.59-25.9 107.54-26.45 107.49-27 107.49-27.3L107.49-27.3Q107.49-28.4 108.32-28.95 109.14-29.5 110.19-29.5L110.19-29.5Q111.49-29.5 111.97-28.85 112.44-28.2 112.44-26.45L112.44-26.45Q112.44-23.85 111.99-21.35L111.99-21.35Q112.79-21.35 114.19-21.45L114.19-21.45Q116.09-21.55 116.94-21.55L116.94-21.55Q117.79-21.55 118.42-21.13 119.04-20.7 119.04-19.95L119.04-19.95Q119.04-18 117.29-17.65L117.29-17.65Q115.44-17.2 111.54-17.1L111.54-17.1Q111.39-15.15 111.39-12.85L111.39-12.85Q111.39-9.25 111.84-6.95L111.84-6.95Q112.14-5.35 112.87-4.63 113.59-3.9 115.04-3.9L115.04-3.9Q115.89-3.9 116.79-4.35L116.79-4.35Q117.39-4.7 117.89-4.7L117.89-4.7Q118.59-4.7 118.92-4.25 119.24-3.8 119.24-3.05L119.24-3.05Q119.24-1.65 117.74-0.73 116.24 0.2 113.89 0.2L113.89 0.2Q112.44 0.2 110.97-0.5 109.49-1.2 108.49-2.25L108.49-2.25Q108.34-2.4 107.94-3.4 107.54-4.4 107.24-5.55L107.24-5.55Q106.74-7.9 106.74-12.15L106.74-12.15Q106.74-14 106.94-17.1L106.94-17.1ZM143.14-16.05Q143.54-15.35 143.79-14.03 144.04-12.7 144.04-11.65L144.04-11.65Q144.04-9.7 143.19-6.1L143.19-6.1Q139.74 0.2 132.99 0.2L132.99 0.2Q130.49 0.2 127.89-1.45 125.29-3.1 124.29-5.25L124.29-5.25Q122.94-9.55 122.94-10.7L122.94-10.7Q122.94-12.7 123.81-14.95 124.69-17.2 126.04-18.85L126.04-18.85Q126.89-20 129.09-20.83 131.29-21.65 133.09-21.65L133.09-21.65Q136.59-21.65 139.04-20.33 141.49-19 143.14-16.05L143.14-16.05ZM138.79-8Q139.04-8.65 139.04-11.35L139.04-11.35Q139.04-12.8 138.51-14.2 137.99-15.6 136.99-16.6L136.99-16.6Q136.89-16.7 136.44-16.93 135.99-17.15 135.21-17.38 134.44-17.6 133.44-17.6L133.44-17.6Q130.64-17.6 129.34-15.35 128.04-13.1 128.04-10.25L128.04-10.25Q128.04-9.75 128.31-8.35 128.59-6.95 128.79-6.6L128.79-6.6Q128.94-6.25 129.56-5.63 130.19-5 131.11-4.53 132.04-4.05 133.04-4.05L133.04-4.05Q135.29-4.05 136.64-5.13 137.99-6.2 138.79-8L138.79-8ZM169.18-27.6Q169.03-24.4 169.03-21.45L169.03-21.45Q169.03-18.4 169.43-12.5L169.43-12.5Q169.48-11.6 169.63-8.88 169.78-6.15 169.78-3.9L169.78-3.9Q170.28-3.95 170.86-4.05 171.43-4.15 171.73-4.15L171.73-4.15Q172.83-4.15 173.48-3.6 174.13-3.05 174.13-1.9L174.13-1.9Q174.13-1.15 173.53-0.75 172.93-0.35 171.46-0.18 169.98 0 167.18 0L167.18 0Q164.08 0 162.53-0.2 160.98-0.4 160.38-0.98 159.78-1.55 159.78-2.7L159.78-2.7Q159.78-3.55 160.33-3.85 160.88-4.15 161.88-4.15L161.88-4.15 162.93-4.1 164.58-4 164.33-9.9Q164.03-14.7 164.03-18.7L164.03-18.7Q164.03-20.85 164.18-24.6L164.18-24.6 164.28-27.35Q162.58-27.25 161.63-27.25L161.63-27.25Q160.53-27.25 160.16-27.65 159.78-28.05 159.78-29.3L159.78-29.3Q159.78-30.7 161.71-31.1 163.63-31.5 167.58-31.5L167.58-31.5Q170.63-31.5 172.16-31.3 173.68-31.1 173.68-30.4L173.68-30.4Q173.68-28.7 172.96-28.18 172.23-27.65 170.18-27.65L170.18-27.65 169.18-27.6ZM201.63-3.85Q201.88-3.75 202.43-3.6 202.98-3.45 203.23-3.3 203.48-3.15 203.48-2.85L203.48-2.85Q203.53-1.65 202.61-0.88 201.68-0.1 200.43-0.1L200.43-0.1Q198.48-0.1 197.38-1.15 196.28-2.2 195.78-4.35L195.78-4.35Q195.58-5.2 195.58-6.7L195.58-6.7Q195.58-7.55 195.68-9.45L195.68-9.45Q195.78-11.45 195.78-12.65L195.78-12.65Q195.78-14.4 194.81-15.73 193.83-17.05 192.08-17.05L192.08-17.05Q191.03-17.05 189.88-16.43 188.73-15.8 188.28-14.9L188.28-14.9Q187.53-13.45 187.23-11.75L187.23-11.75Q186.68-8.75 186.68-5.5L186.68-5.5Q186.68-3.95 186.73-3.1L186.73-3.1Q186.73-2.9 186.76-2.33 186.78-1.75 186.66-1.28 186.53-0.8 186.23-0.4L186.23-0.4Q185.98-0.15 185.46 0.03 184.93 0.2 184.48 0.2L184.48 0.2Q183.78 0.2 182.73-0.4 181.68-1 181.53-1.75L181.53-1.75 181.48-2.6Q181.48-3.05 181.58-3.65L181.58-3.65Q182.18-7.15 182.18-9.75L182.18-9.75Q182.18-10.9 182.13-11.55L182.13-11.55 182.08-13.9Q182.08-15.1 181.48-16.23 180.88-17.35 180.08-17.35L180.08-17.35Q179.83-17.35 179.38-17.18 178.93-17 178.63-17L178.63-17Q178.13-17 177.56-17.5 176.98-18 176.98-18.55L176.98-18.55Q176.98-19.6 177.68-20.25L177.68-20.25Q178.43-20.85 179.16-21.2 179.88-21.55 180.83-21.55L180.83-21.55Q181.63-21.55 182.13-21.4 182.63-21.25 183.48-20.75L183.48-20.75Q183.93-20.5 184.53-19.65 185.13-18.8 185.53-17.25L185.53-17.25Q186.83-19.65 188.76-20.63 190.68-21.6 193.68-21.6L193.68-21.6Q194.83-21.6 196.16-20.85 197.48-20.1 198.43-19.1L198.43-19.1Q199.33-18 199.93-16.38 200.53-14.75 200.53-13.45L200.53-13.45Q200.53-12.7 200.43-11L200.43-11Q200.28-9.65 200.28-8.15L200.28-8.15Q200.28-4.65 201.63-3.85L201.63-3.85ZM221.73-26.05Q221.03-26.05 220.38-26.4 219.73-26.75 219.48-27.45L219.48-27.45Q218.98-28.8 218.4-29.38 217.83-29.95 217.03-29.95L217.03-29.95Q216.53-29.95 216.1-29.2 215.68-28.45 215.48-26.85L215.48-26.85Q215.13-23.55 215.13-21.8L215.13-21.8Q215.88-21.65 217.23-21.65L217.23-21.65Q217.93-21.65 219.03-21.75L219.03-21.75 220.38-21.8Q221.28-21.8 221.78-21.45 222.28-21.1 222.28-20.3L222.28-20.3Q222.28-19.15 221.58-18.4 220.88-17.65 219.93-17.65L219.93-17.65Q216.33-17.65 215.08-17.3L215.08-17.3Q215.08-14.3 215.38-8.7L215.38-8.7Q215.38-7.85 215.48-6.25L215.48-6.25 215.68-2.4Q215.78-0.95 215.4-0.38 215.03 0.2 213.83 0.2L213.83 0.2Q211.63 0.2 210.98-2.45L210.98-2.45Q210.58-4.35 210.35-7.88 210.13-11.4 210.13-14.1L210.13-14.1Q210.13-15.5 210.28-17.35L210.28-17.35Q210.18-17.4 209.73-17.4L209.73-17.4Q209.28-17.4 209.08-17.35L209.08-17.35Q207.58-17.25 206.88-17.25L206.88-17.25Q206.43-17.25 205.98-17.9 205.53-18.55 205.53-19.4L205.53-19.4Q205.53-19.9 205.88-20.33 206.23-20.75 206.73-20.95L206.73-20.95Q207.48-21.35 208.88-21.35L208.88-21.35 210.38-21.35Q210.38-28.35 211.93-31.1L211.93-31.1Q213.43-33.7 216.88-33.7L216.88-33.7Q218.48-33.7 219.95-33.05 221.43-32.4 222.35-31.25 223.28-30.1 223.28-28.65L223.28-28.65Q223.28-27.1 222.88-26.58 222.48-26.05 221.73-26.05L221.73-26.05ZM245.83-16.05Q246.23-15.35 246.48-14.03 246.73-12.7 246.73-11.65L246.73-11.65Q246.73-9.7 245.88-6.1L245.88-6.1Q242.43 0.2 235.68 0.2L235.68 0.2Q233.18 0.2 230.58-1.45 227.98-3.1 226.98-5.25L226.98-5.25Q225.63-9.55 225.63-10.7L225.63-10.7Q225.63-12.7 226.5-14.95 227.38-17.2 228.73-18.85L228.73-18.85Q229.58-20 231.78-20.83 233.98-21.65 235.78-21.65L235.78-21.65Q239.28-21.65 241.73-20.33 244.18-19 245.83-16.05L245.83-16.05ZM241.48-8Q241.73-8.65 241.73-11.35L241.73-11.35Q241.73-12.8 241.2-14.2 240.68-15.6 239.68-16.6L239.68-16.6Q239.58-16.7 239.13-16.93 238.68-17.15 237.9-17.38 237.13-17.6 236.13-17.6L236.13-17.6Q233.33-17.6 232.03-15.35 230.73-13.1 230.73-10.25L230.73-10.25Q230.73-9.75 231-8.35 231.28-6.95 231.48-6.6L231.48-6.6Q231.63-6.25 232.25-5.63 232.88-5 233.8-4.53 234.73-4.05 235.73-4.05L235.73-4.05Q237.98-4.05 239.33-5.13 240.68-6.2 241.48-8L241.48-8Z" opacity="1" transform="matrix(1,0,0,1,0,0)" fill="#0c1d36" class="undefined-text-0" data-fill-palette-color="quaternary" id="text-0"></path></svg></g></svg></g></svg></g></svg></g><g></g></svg></g><defs></defs></svg><rect width="395.52" height="104.54917172842033" fill="none" stroke="none" visibility="hidden"></rect></g></svg>